# xmcd
#
# Track frame offsets:
#	150
#	17300
#	31415
#	44528
#	59363
#	71390
#	85300
#	99633
#	112875
#	127168
#	141545
#	157380
#	172555
#	185380
#	200043
#	214278
#	228358
#	240038
#	254550
#	269603
#
# Disc length: 3796 seconds
#
# Revision: 0
# Processed by: cddbd v1.5.2PL0 Copyright (c) Steve Scherf et al.
# Submitted via: EasyCDDAExtractor 16.0.6.1
#
DISCID=210ed214
DTITLE=Γαβαλάς Πάνος - Αξέχαστες επιτυχίες-Γαβαλάς Πάνος 1
DYEAR=1982
DGENRE=Λαϊκή
TTITLE0=Γαβαλάς Πάνος-Κούρτη Ρία - Φύγε και άσε με [Π. Γαβαλά-Κ. Βίρβου]
TTITLE1=Γαβαλάς Πάνος-Κούρτη Ρία - Κάθε λιμάνι και καϋμός [Γ. Κατσαρού-Πυθαγόρ
TTITLE1=α]
TTITLE2=Γαβαλάς Πάνος-Κούρτη Ρία - Άμα θες να κλάψεις κλάψε [Α. Καλδάρα-Γ. Σαμ
TTITLE2=ολαδά]
TTITLE3=Γαβαλάς Πάνος - Εγώ είμαι ένα παλιόπαιδο [Π. Γαβαλά-Ν. Μουρκάκου-Α. Κο
TTITLE3=υλούρη]
TTITLE4=Γαβαλάς Πάνος-Κούρτη Ρία - Τα χρόνια δεν έχουν καμμιά σημασία [Σ. Χρυσ
TTITLE4=ίνη-Σ. Κεφαλόπουλου-Σ. Σιδέρη]
TTITLE5=Γαβαλάς Πάνος-Κούρτη Ρία - Δεν πουλάω την καρδιά μου [Β. Βασιλειάδη-Χ.
TTITLE5=Σύρπου]
TTITLE6=Γαβαλάς Πάνος-Κούρτη Ρία - Άπονε έρωτά μου [Π. Γαβαλά-Β. Βασιλειάδη]
TTITLE7=Γαβαλάς Πάνος-Κούρτη Ρία - Θα βρω μουρμούρη μπαγλαμά [Α. Καλδάρα-Ε. Πα
TTITLE7=παγιαννοπούλου]
TTITLE8=Γαβαλάς Πάνος-Κούρτη Ρία - Όσο κι αν πίνω κι αν μεθώ [Π. Γαβαλά-Ν. Μεϊ
TTITLE8=μάρη]
TTITLE9=Γαβαλάς Πάνος-Κούρτη Ρία - Μού σπάσανε τον μπαγλαμά [Α. Καλδάρα-Ε. Παπ
TTITLE9=αγιαννοπούλου]
TTITLE10=Γαβαλάς Πάνος-Κούρτη Ρία - Όνειρο δεμένο [Σ. Ξαρχάκου-Β. Γκούφα]
TTITLE11=Γαβαλάς Πάνος-Κούρτη Ρία - Πληροφορίες κακές [Μ. Μπακάλη-Σ. Καμπέρη]
TTITLE12=Γαβαλάς Πάνος-Κούρτη Ρία - Της αμαρτίας το σκαλί [Α. Καλδάρα]
TTITLE13=Γαβαλάς Πάνος-Κούρτη Ρία - Αντίο αγάπη μου [Γ. Καραμπεσίνη]
TTITLE14=Γαβαλάς Πάνος-Κούρτη Ρία - Μη μελαγχολής [Θ. Σοφού-Γ. Μαλλίδη]
TTITLE15=Γαβαλάς Πάνος-Κούρτη Ρία - Μ' έκανε η αγάπη σου ξενύχτη [Α. Κατινάρη-
TTITLE15=Χ. Βασιλειάδη]
TTITLE16=Γαβαλάς Πάνος-Κούρτη Ρία - Μπορεί να έφυγες [Π. Γαβαλά-Β. Βασιλειάδη]
TTITLE17=Γαβαλάς Πάνος-Κούρτη Ρία - Μη με ρωτάτε [Θ. Σοφού-Β. Καραπατάκη]
TTITLE18=Γαβαλάς Πάνος-Κούρτη Ρία - Δεν περίμενα από εσένα να τιμωρηθώ [Π. Γαβ
TTITLE18=αλά-Β. Βασιλειάδη]
TTITLE19=Γαβαλάς Πάνος-Κούρτη Ρία - Όσο με μαλώνεις [Β. Τσιτσάνη]
EXTD=
EXTT0=
EXTT1=
EXTT2=
EXTT3=
EXTT4=
EXTT5=
EXTT6=
EXTT7=
EXTT8=
EXTT9=
EXTT10=
EXTT11=
EXTT12=
EXTT13=
EXTT14=
EXTT15=
EXTT16=
EXTT17=
EXTT18=
EXTT19=
PLAYORDER=
